<svg xmlns="http://www.w3.org/2000/svg" width="920" height="320" viewBox="0 0 920 320">
  <rect x="20" y="30" width="260" height="80" rx="8" fill="#eef2ff" stroke="#2b3a67" stroke-width="2" />
  <text x="150" y="70" text-anchor="middle" font-family="Arial" font-size="16" fill="#1f2937">Admin Dashboard</text>
  <text x="150" y="92" text-anchor="middle" font-family="Arial" font-size="12" fill="#1f2937">Board + School Admin</text>

  <rect x="20" y="140" width="260" height="80" rx="8" fill="#ecfeff" stroke="#0f766e" stroke-width="2" />
  <text x="150" y="180" text-anchor="middle" font-family="Arial" font-size="16" fill="#1f2937">Driver App</text>
  <text x="150" y="202" text-anchor="middle" font-family="Arial" font-size="12" fill="#1f2937">GPS + Emergency</text>

  <rect x="20" y="250" width="260" height="50" rx="8" fill="#fef3c7" stroke="#b45309" stroke-width="2" />
  <text x="150" y="280" text-anchor="middle" font-family="Arial" font-size="16" fill="#1f2937">Parent Portal</text>

  <rect x="330" y="95" width="260" height="120" rx="10" fill="#e2e8f0" stroke="#1f2937" stroke-width="2" />
  <text x="460" y="150" text-anchor="middle" font-family="Arial" font-size="18" fill="#1f2937">API Gateway</text>
  <text x="460" y="172" text-anchor="middle" font-family="Arial" font-size="12" fill="#1f2937">Auth + RBAC + Proxies</text>

  <rect x="640" y="30" width="260" height="240" rx="10" fill="#f8fafc" stroke="#374151" stroke-width="2" />
  <text x="770" y="60" text-anchor="middle" font-family="Arial" font-size="14" fill="#1f2937">Core Services</text>
  <text x="770" y="88" text-anchor="middle" font-family="Arial" font-size="12" fill="#1f2937">GPS, Alerts, Presence, Video</text>
  <text x="770" y="112" text-anchor="middle" font-family="Arial" font-size="12" fill="#1f2937">Students, Compliance</text>

  <line x1="280" y1="70" x2="330" y2="125" stroke="#1f2937" stroke-width="2" />
  <line x1="280" y1="180" x2="330" y2="155" stroke="#1f2937" stroke-width="2" />
  <line x1="280" y1="275" x2="330" y2="185" stroke="#1f2937" stroke-width="2" />
  <line x1="590" y1="155" x2="640" y2="155" stroke="#1f2937" stroke-width="2" />
</svg>
